<?xml version="1.0" encoding="UTF-8"?>
<svg width="920px" height="760px" viewBox="0 0 920 760" version="1.1" xmlns="http://www.w3.org/2000/svg" xmlns:xlink="http://www.w3.org/1999/xlink">
    <!-- Generator: Sketch 54.1 (76490) - https://sketchapp.com -->
    <title>scrolling</title>
    <desc>Created with Sketch.</desc>
    <g id="scrolling" stroke="none" stroke-width="1" fill="none" fill-rule="evenodd">
        <rect id="Rectangle" fill-opacity="0.1" fill="#4836A3" fill-rule="nonzero" x="0" y="0" width="920" height="760"></rect>
        <g id="Group-52" transform="translate(343.000000, 170.000000)">
            <g id="Group-51">
                <path d="M234,23.3330417 C234,10.4997083 223.47,-0.000291666667 210.6,-0.000291666667 L23.4,-0.000291666667 C10.53,-0.000291666667 0,10.4997083 0,23.3330417 L0,396.666375 C0,409.499708 10.53,419.999708 23.4,419.999708 L210.6,419.999708 C223.47,419.999708 234,409.499708 234,396.666375 L234,23.3330417 Z" id="Stroke-2" stroke="#000000" stroke-width="5" fill-opacity="0.497377622" fill="#4836A3"></path>
                <polygon id="Fill-4" fill="#FFFFFF" points="11.7 361.666667 222.3 361.666667 222.3 58.3333333 11.7 58.3333333"></polygon>
                <polygon id="Stroke-6" stroke="#000000" stroke-width="5" points="11.7 361.666667 222.3 361.666667 222.3 58.3333333 11.7 58.3333333"></polygon>
                <polygon id="Fill-7" fill="#FBD764" points="29.25 116.666667 64.35 116.666667 64.35 81.6666667 29.25 81.6666667"></polygon>
                <polygon id="Stroke-8" stroke="#000000" stroke-width="5" points="29.25 116.666667 64.35 116.666667 64.35 81.6666667 29.25 81.6666667"></polygon>
                <polygon id="Fill-9" fill="#FBD764" points="76.05 116.666667 111.15 116.666667 111.15 81.6666667 76.05 81.6666667"></polygon>
                <polygon id="Stroke-10" stroke="#000000" stroke-width="5" points="76.05 116.666667 111.15 116.666667 111.15 81.6666667 76.05 81.6666667"></polygon>
                <polygon id="Fill-11" fill="#FBD764" points="122.85 116.666667 157.95 116.666667 157.95 81.6666667 122.85 81.6666667"></polygon>
                <polygon id="Stroke-12" stroke="#000000" stroke-width="5" points="122.85 116.666667 157.95 116.666667 157.95 81.6666667 122.85 81.6666667"></polygon>
                <polygon id="Fill-13" fill="#FBD764" points="169.65 116.666667 204.75 116.666667 204.75 81.6666667 169.65 81.6666667"></polygon>
                <polygon id="Stroke-14" stroke="#000000" stroke-width="5" points="169.65 116.666667 204.75 116.666667 204.75 81.6666667 169.65 81.6666667"></polygon>
                <polygon id="Fill-15" fill="#FBD764" points="29.25 163.333333 64.35 163.333333 64.35 128.333333 29.25 128.333333"></polygon>
                <polygon id="Stroke-16" stroke="#000000" stroke-width="5" points="29.25 163.333333 64.35 163.333333 64.35 128.333333 29.25 128.333333"></polygon>
                <polygon id="Fill-17" fill="#FBD764" points="76.05 163.333333 111.15 163.333333 111.15 128.333333 76.05 128.333333"></polygon>
                <polygon id="Stroke-18" stroke="#000000" stroke-width="5" points="76.05 163.333333 111.15 163.333333 111.15 128.333333 76.05 128.333333"></polygon>
                <polygon id="Fill-19" fill="#FBD764" points="122.85 163.333333 157.95 163.333333 157.95 128.333333 122.85 128.333333"></polygon>
                <polygon id="Stroke-20" stroke="#000000" stroke-width="5" points="122.85 163.333333 157.95 163.333333 157.95 128.333333 122.85 128.333333"></polygon>
                <polygon id="Fill-21" fill="#FBD764" points="169.65 163.333333 204.75 163.333333 204.75 128.333333 169.65 128.333333"></polygon>
                <polygon id="Stroke-22" stroke="#000000" stroke-width="5" points="169.65 163.333333 204.75 163.333333 204.75 128.333333 169.65 128.333333"></polygon>
                <polygon id="Fill-23" fill="#FBD764" points="29.25 210 64.35 210 64.35 175 29.25 175"></polygon>
                <polygon id="Stroke-24" stroke="#000000" stroke-width="5" points="29.25 210 64.35 210 64.35 175 29.25 175"></polygon>
                <polygon id="Fill-25" fill="#FBD764" points="76.05 210 111.15 210 111.15 175 76.05 175"></polygon>
                <polygon id="Stroke-26" stroke="#000000" stroke-width="5" points="76.05 210 111.15 210 111.15 175 76.05 175"></polygon>
                <polygon id="Fill-27" fill="#FBD764" points="122.85 210 157.95 210 157.95 175 122.85 175"></polygon>
                <polygon id="Stroke-28" stroke="#000000" stroke-width="5" points="122.85 210 157.95 210 157.95 175 122.85 175"></polygon>
                <polygon id="Fill-29" fill="#FBD764" points="169.65 210 204.75 210 204.75 175 169.65 175"></polygon>
                <polygon id="Stroke-30" stroke="#000000" stroke-width="5" points="169.65 210 204.75 210 204.75 175 169.65 175"></polygon>
                <g id="Group" opacity="0.800000012" transform="translate(29.250000, 221.666667)">
                    <polygon id="Fill-31" fill="#FBD764" points="0 35 35.1 35 35.1 2.84217094e-14 0 2.84217094e-14"></polygon>
                    <polygon id="Stroke-32" stroke="#000000" stroke-width="5" points="0 35 35.1 35 35.1 2.84217094e-14 0 2.84217094e-14"></polygon>
                </g>
                <g id="Group-Copy" opacity="0.149999991" transform="translate(29.250000, 268.000000)">
                    <polygon id="Fill-31" fill="#FBD764" points="0 35 35.1 35 35.1 2.84217094e-14 0 2.84217094e-14"></polygon>
                    <polygon id="Stroke-32" stroke="#000000" stroke-width="5" points="0 35 35.1 35 35.1 2.84217094e-14 0 2.84217094e-14"></polygon>
                </g>
                <g id="Group-Copy-2" opacity="0.049999997" transform="translate(76.000000, 268.000000)">
                    <polygon id="Fill-31" fill="#FBD764" points="0 35 35.1 35 35.1 2.84217094e-14 0 2.84217094e-14"></polygon>
                    <polygon id="Stroke-32" stroke="#000000" stroke-width="5" points="0 35 35.1 35 35.1 2.84217094e-14 0 2.84217094e-14"></polygon>
                </g>
                <g id="Group-2" opacity="0.600000024" transform="translate(76.050000, 221.666667)">
                    <polygon id="Fill-33" fill="#FBD764" points="-3.55271368e-14 35 35.1 35 35.1 2.84217094e-14 -3.55271368e-14 2.84217094e-14"></polygon>
                    <polygon id="Stroke-34" stroke="#000000" stroke-width="5" points="-3.55271368e-14 35 35.1 35 35.1 2.84217094e-14 -3.55271368e-14 2.84217094e-14"></polygon>
                </g>
                <g id="Group-3" opacity="0.400000006" transform="translate(122.850000, 221.666667)">
                    <polygon id="Fill-35" fill="#FBD764" points="-3.55271368e-14 35 35.1 35 35.1 2.84217094e-14 -3.55271368e-14 2.84217094e-14"></polygon>
                    <polygon id="Stroke-36" stroke="#000000" stroke-width="5" points="-3.55271368e-14 35 35.1 35 35.1 2.84217094e-14 -3.55271368e-14 2.84217094e-14"></polygon>
                </g>
                <g id="Group-4" opacity="0.25" transform="translate(169.650000, 221.666667)">
                    <polygon id="Fill-37" fill="#FBD764" points="0 35 35.1 35 35.1 2.84217094e-14 0 2.84217094e-14"></polygon>
                    <polygon id="Stroke-38" stroke="#000000" stroke-width="5" points="0 35 35.1 35 35.1 2.84217094e-14 0 2.84217094e-14"></polygon>
                </g>
                <path d="M134.55,390.833042 C134.55,400.497417 126.691987,408.333042 117,408.333042 C107.308012,408.333042 99.45,400.497417 99.45,390.833042 C99.45,381.170125 107.308012,373.333042 117,373.333042 C126.691987,373.333042 134.55,381.170125 134.55,390.833042" id="Fill-47" fill="#FFFFFF"></path>
                <path d="M134.55,390.833042 C134.55,400.497417 126.691987,408.333042 117,408.333042 C107.308012,408.333042 99.45,400.497417 99.45,390.833042 C99.45,381.170125 107.308012,373.333042 117,373.333042 C126.691987,373.333042 134.55,381.170125 134.55,390.833042 Z" id="Stroke-48" stroke="#000000" stroke-width="5"></path>
                <path d="M93.6,34.9997083 L140.4,34.9997083" id="Stroke-49" stroke="#000000" stroke-width="5"></path>
                <path d="M105.3,23.3330417 L128.7,23.3330417" id="Stroke-50" stroke="#000000" stroke-width="5"></path>
            </g>
        </g>
    </g>
</svg>