<?xml version="1.0" encoding="UTF-8"?>
<svg width="920px" height="760px" viewBox="0 0 920 760" version="1.1" xmlns="http://www.w3.org/2000/svg" xmlns:xlink="http://www.w3.org/1999/xlink">
    <!-- Generator: Sketch 54.1 (76490) - https://sketchapp.com -->
    <title>combine</title>
    <desc>Created with Sketch.</desc>
    <g id="combine" stroke="none" stroke-width="1" fill="none" fill-rule="evenodd">
        <rect id="Rectangle" fill-opacity="0.1" fill="#4836A3" fill-rule="nonzero" x="0" y="0" width="920" height="760"></rect>
        <g id="Group-17" transform="translate(238.000000, 145.000000)">
            <g id="Group-16">
                <path d="M295.940245,276.315605 C274.178695,288.90157 248.940995,296.140351 221.999445,296.140351 C195.057895,296.140351 169.820195,288.90157 148.060495,276.315605 C148.913345,330.1095 178.422695,376.910781 221.999445,402.140088 C265.578045,376.910781 295.085545,330.1095 295.940245,276.315605" id="Fill-2" fill-opacity="0.5" fill="#4836A3"></path>
                <path d="M148.06142,276.315605 C148.04662,275.517877 148.00037,274.731254 148.00037,273.929825 C148.00037,219.132754 177.77612,171.322746 222.00037,145.719561 C200.22587,133.111386 174.96597,125.859649 148.00037,125.859649 C121.05697,125.859649 95.82112,133.09843 74.06142,145.684395 C74.04662,146.482123 74.00037,147.268746 74.00037,148.070175 C74.00037,202.891307 103.80202,250.719825 148.06142,276.315605" id="Fill-4" fill-opacity="0.5" fill="#4836A3"></path>
                <path d="M222,145.719006 C266.22425,171.32219 296,219.13405 296,273.929269 C296,274.730699 295.95375,275.519173 295.9408,276.31505 C340.19835,250.719269 370,202.890752 370,148.071471 C370,147.270041 369.95375,146.481568 369.9408,145.683839 C348.17925,133.097875 322.94155,125.860945 296,125.860945 C269.0344,125.860945 243.7745,133.110831 222,145.719006" id="Fill-6" fill-opacity="0.5" fill="#4836A3"></path>
                <path d="M222,145.719006 C177.77575,171.32219 148,219.13405 148,273.929269 C148,274.730699 148.04625,275.519173 148.06105,276.31505 C169.82075,288.901015 195.05845,296.139796 222,296.139796 C248.94155,296.139796 274.17925,288.901015 295.9408,276.31505 C295.95375,275.519173 296,274.730699 296,273.929269 C296,219.13405 266.22425,171.32219 222,145.719006" id="Fill-8" fill-opacity="0.85" fill="#4836A3"></path>
                <path d="M296,273.929639 C296,355.706946 229.73855,421.999815 148,421.999815 C66.26145,421.999815 0,355.706946 0,273.929639 C0,192.152332 66.26145,125.859464 148,125.859464 C229.73855,125.859464 296,192.152332 296,273.929639 Z" id="Stroke-10" stroke="#000000" stroke-width="5"></path>
                <path d="M444,273.929639 C444,355.706946 377.73855,421.999815 296,421.999815 C214.26145,421.999815 148,355.706946 148,273.929639 C148,192.152332 214.26145,125.859464 296,125.859464 C377.73855,125.859464 444,192.152332 444,273.929639 Z" id="Stroke-12" stroke="#000000" stroke-width="5"></path>
                <path d="M370,148.070546 C370,229.846002 303.73855,296.140721 222,296.140721 C140.26145,296.140721 74,229.846002 74,148.070546 C74,66.2932386 140.26145,0.000370175439 222,0.000370175439 C303.73855,0.000370175439 370,66.2932386 370,148.070546 Z" id="Stroke-14" stroke="#000000" stroke-width="5"></path>
            </g>
        </g>
    </g>
</svg>