<?xml version="1.0" encoding="UTF-8"?>
<svg width="920px" height="760px" viewBox="0 0 920 760" version="1.1" xmlns="http://www.w3.org/2000/svg" xmlns:xlink="http://www.w3.org/1999/xlink">
    <!-- Generator: Sketch 54.1 (76490) - https://sketchapp.com -->
    <title>define</title>
    <desc>Created with Sketch.</desc>
    <g id="define" stroke="none" stroke-width="1" fill="none" fill-rule="evenodd">
        <rect id="Rectangle" fill-opacity="0.1" fill="#4836A3" fill-rule="nonzero" x="0" y="0" width="920" height="760"></rect>
        <g id="Group-66" transform="translate(251.000000, 171.000000)">
            <polygon id="Fill-2" fill="#FBD764" points="52 26 274 26 274 0 52 0"></polygon>
            <g id="Group-65">
                <g id="Group-6" transform="translate(0.000000, 78.375000)">
                    <path d="M0,235.125 C0,249.565594 11.6844063,261.25 26.125,261.25 L418,261.25 L418,0 L52.25,0" id="Fill-3" fill-opacity="0.4" fill="#4836A3"></path>
                    <path d="M0,235.125 C0,249.565594 11.6844063,261.25 26.125,261.25 L418,261.25 L418,0 L52.25,0" id="Stroke-5" stroke="#000000" stroke-width="5"></path>
                </g>
                <polygon id="Fill-7" fill="#FFFFFF" points="143.574346 165.56931 162.993385 171.124138 264.804143 229.905388 279.324745 243.945943 274.42794 252.428404 255.008901 246.875209 153.19651 188.093959 138.675909 174.053404"></polygon>
                <polygon id="Stroke-9" stroke="#000000" stroke-width="5" points="143.574346 165.56931 162.993385 171.124138 264.804143 229.905388 279.324745 243.945943 274.42794 252.428404 255.008901 246.875209 153.19651 188.093959 138.675909 174.053404"></polygon>
                <polygon id="Fill-11" fill="#FFFFFF" points="174.054873 138.675745 188.093795 153.196347 246.875045 255.007105 252.429873 274.426144 243.947413 279.324581 229.908491 264.80398 171.125608 162.993222 165.57078 143.574183"></polygon>
                <polygon id="Stroke-13" stroke="#000000" stroke-width="5" points="174.054873 138.675745 188.093795 153.196347 246.875045 255.007105 252.429873 274.426144 243.947413 279.324581 229.908491 264.80398 171.125608 162.993222 165.57078 143.574183"></polygon>
                <polygon id="Fill-15" fill="#FFFFFF" points="213.898438 130.625 218.796875 150.21875 218.796875 267.78125 213.898438 287.375 204.103195 287.376633 199.204758 267.78125 199.203125 150.21875 204.103195 130.625"></polygon>
                <polygon id="Stroke-17" stroke="#000000" stroke-width="5" points="213.898438 130.625 218.796875 150.21875 218.796875 267.78125 213.898438 287.375 204.103195 287.376633 199.204758 267.78125 199.203125 150.21875 204.103195 130.625"></polygon>
                <polygon id="Fill-19" fill="#FFFFFF" points="252.42971 143.574183 246.874882 162.993222 188.093632 264.80398 174.05471 279.324581 165.570616 274.427777 171.125445 255.007105 229.906695 153.196347 243.945616 138.675745"></polygon>
                <polygon id="Stroke-21" stroke="#000000" stroke-width="5" points="252.42971 143.574183 246.874882 162.993222 188.093632 264.80398 174.05471 279.324581 165.570616 274.427777 171.125445 255.007105 229.906695 153.196347 243.945616 138.675745"></polygon>
                <polygon id="Fill-23" fill="#FFFFFF" points="279.324091 174.053894 264.80349 188.094448 162.992732 246.875698 143.573693 252.428894 138.675255 243.946433 153.195857 229.905878 255.006615 171.124628 274.425654 165.571433"></polygon>
                <polygon id="Stroke-25" stroke="#000000" stroke-width="5" points="279.324091 174.053894 264.80349 188.094448 162.992732 246.875698 143.573693 252.428894 138.675255 243.946433 153.195857 229.905878 255.006615 171.124628 274.425654 165.571433"></polygon>
                <polygon id="Fill-27" fill="#FFFFFF" points="287.375 213.898438 267.78125 218.796875 150.21875 218.796875 130.625 213.898438 130.625 204.101563 150.21875 199.203125 267.78125 199.203125 287.375 204.101563"></polygon>
                <polygon id="Stroke-29" stroke="#000000" stroke-width="5" points="287.375 213.898438 267.78125 218.796875 150.21875 218.796875 130.625 213.898438 130.625 204.101563 150.21875 199.203125 267.78125 199.203125 287.375 204.101563"></polygon>
                <path d="M267.78125,209 C267.78125,241.465211 241.465211,267.78125 209,267.78125 C176.536422,267.78125 150.21875,241.465211 150.21875,209 C150.21875,176.534789 176.536422,150.21875 209,150.21875 C241.465211,150.21875 267.78125,176.534789 267.78125,209" id="Fill-31" fill="#FFFFFF"></path>
                <path d="M267.78125,209 C267.78125,241.465211 241.465211,267.78125 209,267.78125 C176.536422,267.78125 150.21875,241.465211 150.21875,209 C150.21875,176.534789 176.536422,150.21875 209,150.21875 C241.465211,150.21875 267.78125,176.534789 267.78125,209 Z" id="Stroke-33" stroke="#000000" stroke-width="5"></path>
                <path d="M235.125,209 C235.125,223.427531 223.427531,235.125 209,235.125 C194.569203,235.125 182.875,223.427531 182.875,209 C182.875,194.570836 194.569203,182.875 209,182.875 C223.427531,182.875 235.125,194.570836 235.125,209" id="Fill-35" fill="#FFFFFF"></path>
                <path d="M235.125,209 C235.125,223.427531 223.427531,235.125 209,235.125 C194.569203,235.125 182.875,223.427531 182.875,209 C182.875,194.570836 194.569203,182.875 209,182.875 C223.427531,182.875 235.125,194.570836 235.125,209 Z" id="Stroke-37" stroke="#000000" stroke-width="5"></path>
                <path d="M52.25,313.5 L52.25,78.375 C52.25,63.9458359 40.5525313,52.25 26.125,52.25 C11.6974687,52.25 0,63.9458359 0,78.375 L0,313.5 C0,299.070836 11.6974687,287.375 26.125,287.375 C40.5525313,287.375 52.25,299.070836 52.25,313.5" id="Fill-39" fill-opacity="0.4" fill="#4836A3"></path>
                <path d="M52.25,313.5 L52.25,78.375 C52.25,63.9458359 40.5525313,52.25 26.125,52.25 C11.6974687,52.25 0,63.9458359 0,78.375 L0,313.5 C0,299.070836 11.6974687,287.375 26.125,287.375 C40.5525313,287.375 52.25,299.070836 52.25,313.5 Z" id="Stroke-41" stroke="#000000" stroke-width="5"></path>
                <polyline id="Stroke-43" stroke="#000000" stroke-width="5" points="78.375 313.5 391.875 313.5 391.875 104.5 52.25 104.5"></polyline>
                <polygon id="Fill-45" fill="#FBD764" points="104.5 418 418 418 418 365.75 104.5 365.75"></polygon>
                <polygon id="Stroke-47" stroke="#000000" stroke-width="5" points="104.5 418 418 418 418 365.75 104.5 365.75"></polygon>
                <path d="M52.25,26.125 L52.25,0" id="Stroke-48" stroke="#000000" stroke-width="5"></path>
                <path d="M274.3125,13.0625 L52.25,13.0625" id="Stroke-49" stroke="#000000" stroke-width="5"></path>
                <path d="M306.96875,0 L52.25,0 L0,13.0625 L52.25,26.125 L306.96875,26.125 C314.182516,26.125 320.03125,20.2762656 320.03125,13.0625 C320.03125,5.84873437 314.182516,0 306.96875,0 Z" id="Stroke-50" stroke="#000000" stroke-width="5"></path>
                <path d="M287.375,26.125 L287.375,0" id="Stroke-51" stroke="#000000" stroke-width="5"></path>
                <path d="M274.3125,26.125 L274.3125,0" id="Stroke-52" stroke="#000000" stroke-width="5"></path>
                <path d="M26.125,19.59375 L26.125,6.53125" id="Stroke-53" stroke="#000000" stroke-width="5"></path>
                <path d="M391.875,365.75 L391.875,378.8125" id="Stroke-54" stroke="#000000" stroke-width="5"></path>
                <path d="M365.75,365.75 L365.75,378.8125" id="Stroke-55" stroke="#000000" stroke-width="5"></path>
                <path d="M339.625,365.75 L339.625,378.8125" id="Stroke-56" stroke="#000000" stroke-width="5"></path>
                <path d="M313.5,365.75 L313.5,378.8125" id="Stroke-57" stroke="#000000" stroke-width="5"></path>
                <path d="M287.375,365.75 L287.375,378.8125" id="Stroke-58" stroke="#000000" stroke-width="5"></path>
                <path d="M261.25,365.75 L261.25,378.8125" id="Stroke-59" stroke="#000000" stroke-width="5"></path>
                <path d="M235.125,365.75 L235.125,378.8125" id="Stroke-60" stroke="#000000" stroke-width="5"></path>
                <path d="M209,365.75 L209,378.8125" id="Stroke-61" stroke="#000000" stroke-width="5"></path>
                <path d="M182.875,365.75 L182.875,378.8125" id="Stroke-62" stroke="#000000" stroke-width="5"></path>
                <path d="M156.75,365.75 L156.75,378.8125" id="Stroke-63" stroke="#000000" stroke-width="5"></path>
                <path d="M130.625,365.75 L130.625,378.8125" id="Stroke-64" stroke="#000000" stroke-width="5"></path>
            </g>
        </g>
    </g>
</svg>